<?xml version="1.0" encoding="UTF-8"?>
<svg version="1.1" xmlns="http://www.w3.org/2000/svg" width="308" height="305">
<path d="M0 0 C1.96607208 0.00893532 1.96607208 0.00893532 3.97186279 0.01805115 C7.52577734 0.03491142 11.07896641 0.07698815 14.632586 0.12453318 C18.37489175 0.17070368 22.11734925 0.19480427 25.85983276 0.22189331 C32.1388446 0.27055836 38.41753659 0.33489474 44.69628906 0.40966797 C51.92907415 0.49569454 59.1618027 0.56078668 66.39490044 0.61379158 C74.13720918 0.670698 81.87933195 0.74225333 89.62147284 0.81839514 C91.8349791 0.83924068 94.04849395 0.85746986 96.26202774 0.87512589 C100.40403288 0.90908673 104.54568441 0.95953204 108.6875 1.01171875 C110.50509323 1.0243853 110.50509323 1.0243853 112.35940552 1.03730774 C122.61757099 1.18968946 132.1257582 2.64360349 141.77685547 6.14404297 C142.50791504 6.40789795 143.23897461 6.67175293 143.9921875 6.94360352 C156.21312184 11.50173298 168.20128156 19.19798051 175.62451172 30.12841797 C177.27130137 32.54404443 177.27130137 32.54404443 179.58544922 35.22216797 C192.90316246 51.11040491 196.54767025 70.58834487 196.90185547 90.95654297 C196.93461 92.39364261 196.96766285 93.83073548 197.00097656 95.26782227 C197.63877873 125.64527232 197.4729192 156.0680267 196.94989014 186.44589233 C196.91841678 188.33663328 196.89112229 190.22744946 196.86846924 192.11831665 C196.54017526 217.82954558 190.36440385 240.77306693 171.93701172 259.73779297 C154.08273426 276.63714149 132.49235881 283.53240048 108.44287109 283.55517578 C107.17993225 283.56014069 105.91699341 283.56510559 104.61578369 283.57022095 C101.16901253 283.58326069 97.72226077 283.58977385 94.27546883 283.59423161 C92.11375297 283.59717731 89.95204223 283.60128492 87.79032898 283.60573578 C81.00292949 283.61939139 74.21554193 283.62906629 67.42812967 283.63293767 C59.63806353 283.63740737 51.84817382 283.65491261 44.05816126 283.68393826 C38.00769025 283.70568612 31.95726839 283.71564895 25.90675879 283.71697879 C22.30689523 283.71801793 18.7071979 283.72373189 15.1073761 283.7417984 C-21.0797969 283.91308479 -21.0797969 283.91308479 -35.22314453 277.01904297 C-35.88290283 276.71305176 -36.54266113 276.40706055 -37.22241211 276.09179688 C-39.08793095 275.2158221 -40.93746275 274.30602787 -42.78564453 273.39404297 C-43.71892578 272.93513672 -44.65220703 272.47623047 -45.61376953 272.00341797 C-50.1268097 269.64229099 -53.1912417 267.04790209 -56.78564453 263.39404297 C-58.57391031 261.84843272 -60.36567041 260.30685747 -62.16064453 258.76904297 C-67.57566052 253.88677114 -71.21817499 248.70497415 -74.78564453 242.39404297 C-75.26775391 241.65927734 -75.74986328 240.92451172 -76.24658203 240.16748047 C-78.43664242 236.22092494 -79.88634808 232.07179983 -81.41064453 227.83154297 C-81.72259766 226.98140625 -82.03455078 226.13126953 -82.35595703 225.25537109 C-84.31681718 219.86723167 -85.89908179 215.19747725 -85.95059204 209.41601562 C-85.96182602 208.41289337 -85.97306 207.40977112 -85.9846344 206.37625122 C-85.99196091 205.28126312 -85.99928741 204.18627502 -86.00683594 203.05810547 C-86.01834183 201.89971161 -86.02984772 200.74131775 -86.04170227 199.54782104 C-86.07847407 195.70492212 -86.10809423 191.86200703 -86.13720703 188.01904297 C-86.15448809 186.01571925 -86.17177196 184.01239554 -86.18943632 182.00907516 C-86.24507124 175.69504577 -86.29575782 169.38098996 -86.34326172 163.06689453 C-86.39196724 156.60287875 -86.44831087 150.13896342 -86.50868285 143.67504692 C-86.56054973 138.09511439 -86.6077555 132.51515517 -86.65137041 126.93515205 C-86.67733427 123.61682996 -86.70534221 120.2985634 -86.73674393 116.98028564 C-86.84788704 104.97400165 -86.94380314 92.98504661 -86.36157227 80.98901367 C-86.32310747 80.19467171 -86.28464268 79.40032974 -86.24501228 78.58191681 C-85.90774073 72.68409719 -85.01507141 67.20271301 -83.22314453 61.58154297 C-82.95993408 60.71682373 -82.69672363 59.85210449 -82.42553711 58.96118164 C-78.36960436 46.27185598 -72.40883829 35.74320943 -62.78564453 26.39404297 C-62.02638672 25.62576172 -61.26712891 24.85748047 -60.48486328 24.06591797 C-44.74194513 8.91561376 -21.71008233 -0.37013537 0 0 Z " fill="#2B60E4" transform="translate(97.78564453125,10.60595703125)"/>
<path d="M0 0 C0.495 0.639375 0.99 1.27875 1.5 1.9375 C3.53512483 4.43052791 5.63035176 6.76489015 7.8125 9.125 C16.02550241 18.40660868 21.00009976 28.02519162 24 40 C24.1788549 40.68210258 24.35770981 41.36420515 24.54198456 42.0669775 C25.19677995 45.41794394 25.59788478 47.90032089 23.92631531 50.97480965 C22.20276476 53.0222271 20.37674833 54.84925766 18.43164062 56.68774414 C17.72126648 57.39797226 17.01089233 58.10820038 16.2789917 58.83995056 C13.92751261 61.17937776 11.54273032 63.48149057 9.15625 65.78515625 C7.51024438 67.40995269 5.86651703 69.03706009 4.22497559 70.66636658 C-0.10413981 74.95164897 -4.46195276 79.20652618 -8.8269043 83.45526123 C-14.10646507 88.60474971 -19.35199256 93.78885002 -24.60251617 98.96790981 C-28.69287967 103.00130483 -32.78800928 107.02942769 -36.89880371 111.04200745 C-38.03856659 112.157117 -38.03856659 112.157117 -39.20135498 113.29475403 C-40.60584389 114.66838245 -42.01246401 116.03983728 -43.42181396 117.40847778 C-47.25960483 121.1670745 -50.85402278 125.05682651 -54.36094093 129.12518215 C-56.68804895 131.78701645 -59.13757356 134.2879514 -61.62475586 136.80175781 C-62.13962051 137.32319366 -62.65448517 137.84462952 -63.18495178 138.38186646 C-64.85876753 140.07510197 -66.53632282 141.76455434 -68.21484375 143.453125 C-68.79419741 144.03655418 -69.37355106 144.61998337 -69.97046089 145.22109222 C-73.03067522 148.3020217 -76.09405117 151.3797681 -79.15991211 154.45507812 C-82.30981438 157.61608703 -85.4478503 160.78861388 -88.58345699 163.96379471 C-91.01413054 166.42067505 -93.45370766 168.86856855 -95.89572334 171.31417084 C-97.0564233 172.47971662 -98.21376647 173.64861597 -99.36753654 174.82102203 C-107.15217434 182.72365475 -114.37393 189.90056212 -126.125 190.3125 C-138.00998404 189.95154328 -145.07140809 182.79006505 -152.95703125 174.734375 C-154.07309375 173.61472726 -155.19027738 172.49619606 -156.30851746 171.37872314 C-158.63822105 169.04435212 -160.95758016 166.70033625 -163.26928711 164.34814453 C-166.2170636 161.34937233 -169.18423311 158.37075822 -172.15874195 155.39852524 C-174.46319406 153.09325329 -176.75971494 150.78021375 -179.05371666 148.4645462 C-180.14468504 147.36410436 -181.23741519 146.26540596 -182.33201027 145.16857147 C-191.58780128 135.87304847 -198.36030864 128.60181688 -198.45092773 114.90844727 C-198.28047881 108.30533539 -196.4218538 103.84772906 -192 99 C-185.64971351 93.48951589 -179.15966245 90.70293961 -170.6875 91 C-160.33493671 92.32534388 -153.16152084 99.23885113 -146.1875 106.5 C-145.10178711 107.60021484 -145.10178711 107.60021484 -143.99414062 108.72265625 C-140.1267958 112.67123297 -136.47808381 116.70614744 -133 121 C-130.58363062 123.91886589 -130.58363062 123.91886589 -128 126 C-124.7105974 125.67714137 -123.04618061 124.41997359 -120.75675964 122.12425232 C-120.13872971 121.51179153 -119.52069977 120.89933075 -118.88394165 120.26831055 C-118.21736542 119.59251953 -117.55078918 118.91672852 -116.86401367 118.22045898 C-116.15290939 117.51139908 -115.44180511 116.80233917 -114.70915222 116.0717926 C-112.35476685 113.72042047 -110.01131682 111.35846172 -107.66796875 108.99609375 C-106.03194047 107.35700695 -104.39531998 105.71851105 -102.75813293 104.08058167 C-99.32301828 100.6408595 -95.89287668 97.19628113 -92.46655273 93.74780273 C-88.08879064 89.34186958 -83.70250391 84.94455352 -79.3128767 80.5504446 C-75.11558326 76.34797336 -70.92298228 72.14083256 -66.73046875 67.93359375 C-65.5384488 66.73875272 -65.5384488 66.73875272 -64.32234764 65.51977348 C-62.05369039 63.24418371 -59.78843553 60.96526136 -57.52416992 58.68530273 C-56.86366638 58.02368134 -56.20316284 57.36205994 -55.52264404 56.6803894 C-51.68615609 52.80893374 -48.03402994 48.8274686 -44.4872179 44.68847752 C-42.74980723 42.71594958 -40.89623437 40.99122394 -38.875 39.3125 C-33.8954646 35.14911252 -29.52022822 30.51149819 -25.1875 25.6875 C-18.59297361 18.4122709 -11.61411918 11.52226203 -4.63476562 4.61889648 C-3.08493443 3.08410995 -1.54100867 1.54363937 0 0 Z " fill="#E7EDFB" transform="translate(268,35)"/>
<path d="M0 0 C2.28160195 3.42240292 2.29491266 4.79346265 2.4140625 8.83203125 C2.45289551 10.07702393 2.49172852 11.3220166 2.53173828 12.60473633 C2.56369559 14.00730466 2.59474728 15.40989386 2.625 16.8125 C2.6525235 17.9006752 2.6525235 17.9006752 2.68060303 19.01083374 C3.65985904 57.99974976 3.09293112 97.02072771 2 136 C1.67 136 1.34 136 1 136 C0.67 110.26 0.34 84.52 0 58 C-3.04418277 61.04418277 -6.08542569 64.09010819 -9.1159668 67.14770508 C-13.38251015 71.44983372 -17.65514514 75.74585787 -21.92993164 80.03979492 C-23.77545808 81.89545174 -25.61919604 83.75288892 -27.46118164 85.61206055 C-30.11921467 88.29421666 -32.78353445 90.9699821 -35.44921875 93.64453125 C-36.2762883 94.48192337 -37.10335785 95.31931549 -37.95549011 96.18208313 C-38.72000992 96.946754 -39.48452972 97.71142487 -40.2722168 98.49926758 C-41.28217964 99.51589226 -41.28217964 99.51589226 -42.31254578 100.55305481 C-44 102 -44 102 -46 102 C-46.2218396 102.54650208 -46.4436792 103.09300415 -46.67224121 103.65606689 C-48.41505468 106.7327087 -50.7546253 109.03341347 -53.24414062 111.50292969 C-53.77766647 112.03996017 -54.31119232 112.57699066 -54.86088562 113.1302948 C-56.62101769 114.89921071 -58.38834218 116.6607329 -60.15625 118.421875 C-61.38200685 119.64897906 -62.60746667 120.87637988 -63.8326416 122.10406494 C-66.3983709 124.67274063 -68.96767794 127.23776892 -71.53955078 129.80029297 C-74.84197285 133.0912968 -78.13530395 136.39122921 -81.42603302 139.69392014 C-83.95308419 142.22818244 -86.48485982 144.75768146 -89.01811218 147.28574371 C-90.23486828 148.50116249 -91.45013177 149.71807737 -92.66389465 150.93648529 C-94.35643605 152.63408224 -96.05521458 154.32517489 -97.75585938 156.01464844 C-98.25981735 156.52265488 -98.76377533 157.03066132 -99.28300476 157.55406189 C-102.77146797 161 -102.77146797 161 -105 161 C-105 161.66 -105 162.32 -105 163 C-105.66 163 -106.32 163 -107 163 C-107 163.66 -107 164.32 -107 165 C-115.66330016 168.67533946 -123.17054618 170.58578474 -132.1875 167.375 C-136.88907076 165.35901254 -138.99648943 163.06357313 -142 159 C-143.11375 158.443125 -143.11375 158.443125 -144.25 157.875 C-144.8275 157.58625 -145.405 157.2975 -146 157 C-146.33333333 155.66666667 -146.66666667 154.33333333 -147 153 C-148.32407669 152.31513275 -149.65909241 151.65129797 -151 151 C-152.33333333 149.33333333 -153.66666667 147.66666667 -155 146 C-156.32520503 145.31731862 -157.65812182 144.6492959 -159 144 C-160.75 141.875 -160.75 141.875 -162 140 C-161.505 139.01 -161.505 139.01 -161 138 C-160.195625 138.33 -159.39125 138.66 -158.5625 139 C-151.27680478 141.04510743 -144.73650552 140.49203768 -138 137 C-133.66485794 134.29389115 -130.10892583 131.35743891 -126.5012207 127.74414062 C-125.98822418 127.23304245 -125.47522766 126.72194427 -124.94668579 126.19535828 C-123.26813865 124.52048758 -121.59685386 122.83857568 -119.92578125 121.15625 C-118.75363595 119.98291114 -117.58111914 118.80994331 -116.4082489 117.6373291 C-113.95842375 115.18594455 -111.5119803 112.73125191 -109.06811523 110.27392578 C-105.93941515 107.1282086 -102.80414481 103.98914219 -99.66654682 100.85230255 C-97.24787882 98.43336238 -94.83182767 96.01182287 -92.41664696 93.58940125 C-91.26143167 92.43101034 -90.10561552 91.27321833 -88.94918251 90.11604309 C-87.33379049 88.49847736 -85.72173675 86.87765785 -84.1105957 85.25585938 C-83.19381546 84.33526733 -82.27703522 83.41467529 -81.33247375 82.46618652 C-79.00308433 80.10874793 -79.00308433 80.10874793 -77.30558777 77.67150879 C-76.8747438 77.11991089 -76.44389984 76.56831299 -76 76 C-75.34 76 -74.68 76 -74 76 C-73.73133684 75.40629734 -73.46267368 74.81259468 -73.18586922 74.20090103 C-71.99349287 71.98792317 -70.79900276 70.55231634 -69.02609253 68.7855835 C-68.41752411 68.17426575 -67.80895569 67.562948 -67.1819458 66.93310547 C-66.18285187 65.94479736 -66.18285187 65.94479736 -65.16357422 64.93652344 C-64.46102509 64.23368225 -63.75847595 63.53084106 -63.03463745 62.80670166 C-60.71269689 60.48615375 -58.38375372 58.1727692 -56.0546875 55.859375 C-54.44285268 54.25127053 -52.83145903 52.64272375 -51.2204895 51.03375244 C-46.98012971 46.80102735 -42.73379794 42.57434285 -38.48620605 38.34887695 C-34.15255457 34.03568729 -29.82456212 29.71682751 -25.49609375 25.3984375 C-17.00293327 16.92672409 -8.50345472 8.46137967 0 0 Z " fill="#507CE8" transform="translate(292,84)"/>
<path d="M0 0 C1.32 0.66 2.64 1.32 4 2 C3.360625 2.12375 2.72125 2.2475 2.0625 2.375 C1.381875 2.58125 0.70125 2.7875 0 3 C-0.33 3.66 -0.66 4.32 -1 5 C-1.99 4.67 -2.98 4.34 -4 4 C-3.67 5.32 -3.34 6.64 -3 8 C-3.928125 8.350625 -4.85625 8.70125 -5.8125 9.0625 C-9.90266861 11.54868092 -10.5710731 13.48759926 -12 18 C-12.3813074 20.32597511 -12.72460254 22.65912158 -13 25 C-13.33 25.66 -13.66 26.32 -14 27 C-13.34 27 -12.68 27 -12 27 C-11.814375 28.3303125 -11.814375 28.3303125 -11.625 29.6875 C-11.05273906 32.72048297 -10.21885156 35.18140577 -9 38 C-8.67 38.99 -8.34 39.98 -8 41 C-6.68 41 -5.36 41 -4 41 C-4 41.66 -4 42.32 -4 43 C-3.34 43 -2.68 43 -2 43 C-2 43.66 -2 44.32 -2 45 C-1.34 45 -0.68 45 0 45 C0 46.32 0 47.64 0 49 C0.66 49 1.32 49 2 49 C2 48.34 2 47.68 2 47 C2.66 47 3.32 47 4 47 C4.20625 47.9075 4.4125 48.815 4.625 49.75 C6.33057044 53.78134831 8.38098366 54.68998957 12 57 C12.6875 59.1875 12.6875 59.1875 13 61 C14.485 61.495 14.485 61.495 16 62 C16.33 62.66 16.66 63.32 17 64 C17.99 64.33 18.98 64.66 20 65 C20.6875 67.0625 20.6875 67.0625 21 69 C21.66 69 22.32 69 23 69 C24 70.33333333 25 71.66666667 26 73 C26.66 73 27.32 73 28 73 C28.33 74.98 28.66 76.96 29 79 C24.0284085 74.82418209 19.31647856 70.48835043 14.7109375 65.9140625 C14.04462311 65.25344818 13.37830872 64.59283386 12.69180298 63.91220093 C11.2938048 62.52358597 9.89720589 61.13356097 8.50195312 59.7421875 C6.38077392 57.63074741 4.24915306 55.53022842 2.1171875 53.4296875 C0.7519454 52.07097411 -0.61265955 50.71162015 -1.9765625 49.3515625 C-2.92204453 48.42460068 -2.92204453 48.42460068 -3.8866272 47.47891235 C-11.59590094 39.73092791 -15.37747541 33.00776076 -15.45092773 21.90844727 C-15.28101619 15.32615312 -13.43946835 10.81615051 -9 6 C-6.14555467 3.69323687 -3.21821368 1.75929014 0 0 Z " fill="#AAC7FA" transform="translate(85,128)"/>
<path d="M0 0 C0.66 0 1.32 0 2 0 C1.99723462 1.07040512 1.99723462 1.07040512 1.99441338 2.16243458 C1.95027547 19.51315056 1.91716349 36.86385231 1.89637566 54.21461201 C1.88605604 62.60525336 1.87198263 70.99585728 1.84912109 79.38647461 C1.82920818 86.6983679 1.81628855 94.01023409 1.81182301 101.32215375 C1.80921206 105.19499548 1.80306103 109.06775964 1.78853989 112.94057655 C1.77498908 116.58403877 1.77077226 120.22739129 1.77378464 123.87087631 C1.77297002 125.84913784 1.76219531 127.82738737 1.75115967 129.80561829 C1.753909 130.97930969 1.75665833 132.1530011 1.75949097 133.36225891 C1.75764738 134.38452733 1.75580379 135.40679575 1.75390434 136.460042 C1.82203324 139.24424606 1.82203324 139.24424606 4 142 C4.59765625 144.33984375 4.59765625 144.33984375 5.0625 146.9375 C5.72423755 150.60056581 5.72423755 150.60056581 6.68359375 154.19140625 C6.84021484 155.08666016 6.84021484 155.08666016 7 156 C6.01 156.99 6.01 156.99 5 158 C-1.02208864 143.72084203 -0.75096209 129.73231173 -0.7421875 114.453125 C-0.75788365 111.78860058 -0.77540561 109.1241468 -0.79519653 106.45965576 C-0.83276033 100.89560819 -0.85249265 95.33174479 -0.859375 89.76757812 C-0.8690515 81.98980885 -0.91335768 74.21251281 -0.96360183 66.43491602 C-1.00152562 60.3160242 -1.02797386 54.19707396 -1.0546875 48.078125 C-1.06084957 46.8047654 -1.06701164 45.53140579 -1.07336044 44.21945953 C-1.1350856 29.44385574 -0.94387852 14.74788607 0 0 Z " fill="#4D6CC4" transform="translate(12,83)"/>
<path d="M0 0 C0.66 0 1.32 0 2 0 C3.79672343 44.31599222 3.24277981 88.67639021 2 133 C1.67 133 1.34 133 1 133 C0.82656138 120.9584241 0.66026972 108.91675832 0.5 96.875 C0.48812275 95.98292217 0.4762455 95.09084435 0.46400833 94.17173386 C0.0484459 62.77879176 -0.13453314 31.39589498 0 0 Z " fill="#6688D0" transform="translate(292,87)"/>
<path d="M0 0 C0.495 1.485 0.495 1.485 1 3 C0.01 3.33 -0.98 3.66 -2 4 C-2.33 4.99 -2.66 5.98 -3 7 C-4.671875 8.61328125 -4.671875 8.61328125 -6.75 10.3125 C-9.29166604 12.46210053 -11.35473559 14.42568271 -13.5 17 C-16.1291993 20.15503916 -18.9722303 22.62591549 -22.08984375 25.27734375 C-24.68313678 27.61608041 -26.77241433 30.31547368 -29 33 C-30.72644303 34.57022197 -32.50165585 36.06387507 -34.296875 37.5546875 C-36.67071186 39.56918208 -38.83007665 41.769801 -41 44 C-41.5775 44.53625 -42.155 45.0725 -42.75 45.625 C-44.25659086 47.09616618 -44.25659086 47.09616618 -45 50 C-45.66 50 -46.32 50 -47 50 C-46.45970495 45.97070292 -44.49558844 44.13186429 -41.66381836 41.32324219 C-40.28249977 39.94226349 -40.28249977 39.94226349 -38.87327576 38.53338623 C-37.86229096 37.53772081 -36.8511431 36.54222093 -35.83984375 35.546875 C-34.80928859 34.52191674 -33.77939506 33.49629286 -32.75013733 32.47003174 C-30.04249408 29.77382983 -27.32596228 27.08675928 -24.60748291 24.40148926 C-21.83381027 21.65853271 -19.06863571 18.90703876 -16.30273438 16.15625 C-10.87677256 10.7624398 -5.44139257 5.37824766 0 0 Z " fill="#EEFCFE" transform="translate(217,87)"/>
<path d="M0 0 C1.32 0.66 2.64 1.32 4 2 C3.360625 2.12375 2.72125 2.2475 2.0625 2.375 C1.381875 2.58125 0.70125 2.7875 0 3 C-0.33 3.66 -0.66 4.32 -1 5 C-1.99 4.67 -2.98 4.34 -4 4 C-3.67 5.32 -3.34 6.64 -3 8 C-3.928125 8.350625 -4.85625 8.70125 -5.8125 9.0625 C-9.90266861 11.54868092 -10.5710731 13.48759926 -12 18 C-12.3813074 20.32597511 -12.72460254 22.65912158 -13 25 C-13.33 25.66 -13.66 26.32 -14 27 C-13.34 27 -12.68 27 -12 27 C-11.67 29.64 -11.34 32.28 -11 35 C-11.99 34.67 -12.98 34.34 -14 34 C-16.15404162 27.53787514 -16.179495 19.457451 -13.9765625 13 C-10.59462617 6.87140819 -6.08065629 3.32409211 0 0 Z " fill="#B4CDFB" transform="translate(85,128)"/>
<path d="M0 0 C-7.4912854 6.38962578 -14.31045909 8.71960321 -24 8 C-27.5625 7 -27.5625 7 -30 6 C-30 5.34 -30 4.68 -30 4 C-23.52087114 3.87295826 -23.52087114 3.87295826 -20.4375 4.625 C-17.17068998 5.12758616 -15.05533333 4.17012766 -12 3 C-10.67088318 2.65023242 -9.33917261 2.30903983 -8 2 C-8 1.34 -8 0.68 -8 0 C-4.71303767 -0.79953138 -3.28976808 -1.09658936 0 0 Z " fill="#BFD2FB" transform="translate(161,217)"/>
<path d="M0 0 C0.33 0 0.66 0 1 0 C1.01981934 1.07483643 1.03963867 2.14967285 1.06005859 3.25708008 C1.13611258 7.24364714 1.22483009 11.2298491 1.31738281 15.21606445 C1.35567345 16.94157708 1.39052621 18.66716956 1.421875 20.39282227 C1.46752404 22.87284895 1.52551781 25.35232591 1.5859375 27.83203125 C1.59748871 28.60400345 1.60903992 29.37597565 1.62094116 30.17134094 C1.72521273 33.95246674 1.8534589 35.78018835 4 39 C4.59765625 41.33984375 4.59765625 41.33984375 5.0625 43.9375 C5.72423755 47.60056581 5.72423755 47.60056581 6.68359375 51.19140625 C6.78800781 51.78824219 6.89242188 52.38507813 7 53 C6.34 53.66 5.68 54.32 5 55 C0.18546312 42.64178402 -0.63653483 31.67415586 -0.3125 18.5 C-0.2873406 16.69404192 -0.26454115 14.88804936 -0.24414062 13.08203125 C-0.1898537 8.72047932 -0.10402284 4.36063744 0 0 Z " fill="#577ED2" transform="translate(12,186)"/>
<path d="M0 0 C0.59296875 0.20496094 1.1859375 0.40992188 1.796875 0.62109375 C-1.01160997 3.4584315 -3.82556423 6.29028124 -6.640625 9.12109375 C-7.84428711 10.33732422 -7.84428711 10.33732422 -9.07226562 11.578125 C-10.21791992 12.72861328 -10.21791992 12.72861328 -11.38671875 13.90234375 C-12.09368896 14.61455078 -12.80065918 15.32675781 -13.52905273 16.06054688 C-15.203125 17.62109375 -15.203125 17.62109375 -16.203125 17.62109375 C-16.078125 14.30859375 -16.078125 14.30859375 -15.203125 10.62109375 C-12.46131293 8.81266451 -10.52445207 7.62109375 -7.203125 7.62109375 C-7.533125 6.30109375 -7.863125 4.98109375 -8.203125 3.62109375 C-2.74543269 -0.47217548 -2.74543269 -0.47217548 0 0 Z " fill="#CBD9FC" transform="translate(177.203125,198.37890625)"/>
<path d="M0 0 C4.26065035 3.36888632 7.60906782 6.76133477 11 11 C11.66 11.66 12.32 12.32 13 13 C12.01 13.99 11.02 14.98 10 16 C9.67 15.34 9.34 14.68 9 14 C8.34 14 7.68 14 7 14 C5.02 10.535 5.02 10.535 3 7 C2.01 7.495 2.01 7.495 1 8 C1 7.34 1 6.68 1 6 C0.34 6 -0.32 6 -1 6 C-1.33 4.35 -1.66 2.7 -2 1 C-1.34 0.67 -0.68 0.34 0 0 Z " fill="#C7DBF9" transform="translate(124,145)"/>
<path d="M0 0 C6.10819022 3.05409511 10.3536679 7.02782124 15 12 C14.34 13.32 13.68 14.64 13 16 C12.34 15.67 11.68 15.34 11 15 C11 14.01 11 13.02 11 12 C9.68 11.67 8.36 11.34 7 11 C7 10.34 7 9.68 7 9 C5.68 8.34 4.36 7.68 3 7 C3 6.01 3 5.02 3 4 C2.34 4 1.68 4 1 4 C0.67 2.68 0.34 1.36 0 0 Z " fill="#CCDDF9" transform="translate(106,129)"/>
<path d="M0 0 C0.66 0 1.32 0 2 0 C2 7.59 2 15.18 2 23 C1.34 23.33 0.68 23.66 0 24 C-0.90901939 20.95157135 -1.06173367 18.40338364 -0.87890625 15.234375 C-0.83056641 14.34492187 -0.78222656 13.45546875 -0.73242188 12.5390625 C-0.67634766 11.61867188 -0.62027344 10.69828125 -0.5625 9.75 C-0.48418945 8.34621094 -0.48418945 8.34621094 -0.40429688 6.9140625 C-0.27493175 4.60901113 -0.13997966 2.30442711 0 0 Z " fill="#5073D0" transform="translate(12,83)"/>
<path d="M0 0 C2.875 0.25 2.875 0.25 6 1 C7.125 3 7.125 3 8 5 C8.66 5.165 9.32 5.33 10 5.5 C12 6 12 6 13.25 7.875 C14 10 14 10 14 13 C10.12060491 11.41379873 7.66638913 8.90079013 4.75 5.9375 C3.85796875 5.03902344 2.9659375 4.14054688 2.046875 3.21484375 C0 1 0 1 0 0 Z " fill="#ADCBF8" transform="translate(115,208)"/>
<path d="M0 0 C0.99 0.33 1.98 0.66 3 1 C1.59698853 4.18673962 -0.07765071 6.32221406 -2.5625 8.75 C-3.49255859 9.67039062 -3.49255859 9.67039062 -4.44140625 10.609375 C-6 12 -6 12 -7 12 C-7.4375 9.9375 -7.4375 9.9375 -7 7 C-4.87919817 4.42739828 -2.49372439 2.20745501 0 0 Z " fill="#3362DB" transform="translate(202,97)"/>
<path d="M0 0 C0.33 0.99 0.66 1.98 1 3 C-2.96 6.96 -6.92 10.92 -11 15 C-11.66 14.67 -12.32 14.34 -13 14 C-12.67 12.02 -12.34 10.04 -12 8 C-11.01 8 -10.02 8 -9 8 C-6.91666667 7.83333333 -6.91666667 7.83333333 -5 7 C-3.71563266 5.0162233 -3.71563266 5.0162233 -3 3 C-2.34 3 -1.68 3 -1 3 C-0.67 2.01 -0.34 1.02 0 0 Z " fill="#D7E2FB" transform="translate(197,177)"/>
<path d="M0 0 C0.33 0.99 0.66 1.98 1 3 C-0.33333333 4.33333333 -1.66666667 5.66666667 -3 7 C-4.2065625 8.2375 -4.2065625 8.2375 -5.4375 9.5 C-7.84786153 11.85157222 -10.33569287 13.94467736 -13 16 C-13.66 15.67 -14.32 15.34 -15 15 C-10 10 -5 5 0 0 Z " fill="#295DD6" transform="translate(292,141)"/>
<path d="M0 0 C0.33 0.99 0.66 1.98 1 3 C0.01 3.66 -0.98 4.32 -2 5 C-2.2475 5.78375 -2.495 6.5675 -2.75 7.375 C-4.62595999 11.31451598 -7.08007258 12.1800337 -11 14 C-11.66 13.67 -12.32 13.34 -13 13 C-8.71 8.71 -4.42 4.42 0 0 Z " fill="#597AD4" transform="translate(292,84)"/>
<path d="M0 0 C0.33 0.66 0.66 1.32 1 2 C-0.62668824 5.17204207 -2.44425223 7.55074172 -5 10 C-6.01800576 11.31963709 -7.02248365 12.65009646 -8 14 C-8.66 13.67 -9.32 13.34 -10 13 C-8.65515286 8.95838045 -6.9494838 6.61321846 -3.875 3.6875 C-3.15054688 2.99011719 -2.42609375 2.29273438 -1.6796875 1.57421875 C-1.12539063 1.05472656 -0.57109375 0.53523438 0 0 Z " fill="#5782DB" transform="translate(37,35)"/>
<path d="M0 0 C0.99 0.33 1.98 0.66 3 1 C2.38125 1.2475 1.7625 1.495 1.125 1.75 C-1.45810285 3.26947227 -1.73547387 4.32217995 -3 7 C-4.59643578 9.06776444 -6.29138559 11.02160437 -8 13 C-9.32 12.67 -10.64 12.34 -12 12 C-8.04 8.04 -4.08 4.08 0 0 Z " fill="#D9EAFE" transform="translate(160,144)"/>
<path d="M0 0 C2.125 0.9375 2.125 0.9375 4 2 C3.360625 2.12375 2.72125 2.2475 2.0625 2.375 C1.381875 2.58125 0.70125 2.7875 0 3 C-0.33 3.66 -0.66 4.32 -1 5 C-1.99 4.67 -2.98 4.34 -4 4 C-3.67 5.32 -3.34 6.64 -3 8 C-4.65 8.66 -6.3 9.32 -8 10 C-7.70179167 6.42150008 -7.25754642 5.23773516 -4.5625 2.75 C-2 1 -2 1 0 0 Z " fill="#C5D7F8" transform="translate(85,128)"/>
<path d="M0 0 C3.36591866 1.44253657 5.51047079 3.33264727 8 6 C7.01 6.99 6.02 7.98 5 9 C4.67 8.34 4.34 7.68 4 7 C3.34 7 2.68 7 2 7 C0 4 0 4 0 0 Z " fill="#D4E5F6" transform="translate(129,152)"/>
<path d="M0 0 C5.8022175 -0.36263859 9.63999211 0.74315457 15 3 C15 3.33 15 3.66 15 4 C9.5610835 4.21755666 5.12919186 4.10428384 0 2 C0 1.34 0 0.68 0 0 Z " fill="#AEC1F9" transform="translate(131,221)"/>
<path d="M0 0 C0.99 0.33 1.98 0.66 3 1 C0.69 3.97 -1.62 6.94 -4 10 C-4.66 9.34 -5.32 8.68 -6 8 C-5.01 7.67 -4.02 7.34 -3 7 C-3 5.68 -3 4.36 -3 3 C-2.01 3 -1.02 3 0 3 C0 2.01 0 1.02 0 0 Z " fill="#4979D8" transform="translate(276,258)"/>
<path d="M0 0 C0 3.99904969 -1.72586967 5.80200422 -4 9 C-5.32 8.67 -6.64 8.34 -8 8 C-5.36 5.36 -2.72 2.72 0 0 Z " fill="#6486D6" transform="translate(228,148)"/>
<path d="M0 0 C0.33 0.66 0.66 1.32 1 2 C3.01669827 3.13350534 3.01669827 3.13350534 5 4 C2.21176345 5.0326802 1.1322726 5.04509293 -1.75 4.0625 C-2.4925 3.711875 -3.235 3.36125 -4 3 C-4 2.34 -4 1.68 -4 1 C-2 0 -2 0 0 0 Z " fill="#3669D7" transform="translate(67,285)"/>
<path d="M0 0 C0.4125 0.45375 0.825 0.9075 1.25 1.375 C3.06408095 3.05950374 4.75285627 3.99265971 7 5 C6.34 5.66 5.68 6.32 5 7 C4.01 7 3.02 7 2 7 C1.87625 6.360625 1.7525 5.72125 1.625 5.0625 C1.315625 4.0415625 1.315625 4.0415625 1 3 C0.34 2.67 -0.32 2.34 -1 2 C-0.67 1.34 -0.34 0.68 0 0 Z " fill="#C6DCFC" transform="translate(137,158)"/>
<path d="M0 0 C3.3125 -0.1875 3.3125 -0.1875 7 0 C7.99 0.99 8.98 1.98 10 3 C6.7 2.67 3.4 2.34 0 2 C0 1.34 0 0.68 0 0 Z " fill="#466CD5" transform="translate(74,290)"/>
<path d="M0 0 C0.33 0.66 0.66 1.32 1 2 C-1.57784846 4.64752004 -3.91648098 6.94432065 -7 9 C-5.44499019 5.18315774 -2.96404505 2.80804268 0 0 Z " fill="#285BD9" transform="translate(276,157)"/>
<path d="M0 0 C3 1 3 1 4 3 C6.01669827 4.13350534 6.01669827 4.13350534 8 5 C7.01 5.66 6.02 6.32 5 7 C3.29115995 5.37660195 1.62553283 3.70680947 0 2 C0 1.34 0 0.68 0 0 Z " fill="#4676EA" transform="translate(130,222)"/>
<path d="M0 0 C0 3.90838866 -1.50567876 5.11594107 -4 8 C-4.99 7.67 -5.98 7.34 -7 7 C-4.69 4.69 -2.38 2.38 0 0 Z " fill="#DDF0FF" transform="translate(169,135)"/>
<path d="M0 0 C0.33 0.99 0.66 1.98 1 3 C-0.4375 5.6875 -0.4375 5.6875 -2 8 C-2.66 6.68 -3.32 5.36 -4 4 C-2.68 2.68 -1.36 1.36 0 0 Z " fill="#3260CE" transform="translate(285,244)"/>
<path d="M0 0 C2.97 0.99 5.94 1.98 9 3 C8.01 3.66 7.02 4.32 6 5 C4.02 4.01 2.04 3.02 0 2 C0 1.34 0 0.68 0 0 Z " fill="#5A7CDA" transform="translate(241,18)"/>
</svg>
